# xmcd
#
# Track frame offsets:
#	150
#	29052
#	91713
#	129468
#	147824
#	188670
#	218951
#
# Disc length: 3341 seconds
#
# Revision: 0
# Processed by: cddbd v1.5.2PL0 Copyright (c) Steve Scherf et al.
# Submitted via: FairStars CD Ripper 1.90
#
DISCID=5e0d0b07
DTITLE=Gary Moore - Blues And Beyond
DYEAR=2017
DGENRE=Blues
TTITLE0=Too Tired
TTITLE1=The Sky Is Crying
TTITLE2=Further On Up The Road
TTITLE3=Fire
TTITLE4=The Blues Is Alright
TTITLE5=Enough Of The Blues (alternative)
TTITLE6=The Prophet
EXTD=
EXTT0=
EXTT1=
EXTT2=
EXTT3=
EXTT4=
EXTT5=
EXTT6=
PLAYORDER=
